%FSTAX23Y23*%
%MOIN*%
%SFA1B1*%

%IPPOS*%
%AMD10*
4,1,4,0.000000,-0.003500,0.003500,0.000000,0.000000,0.003500,-0.003500,0.000000,0.000000,-0.003500,0.0*
%
%AMD15*
4,1,4,0.003500,0.000000,0.000000,0.003500,-0.003500,0.000000,0.000000,-0.003500,0.003500,0.000000,0.0*
%
G04~CAMADD=10~10~0.0~50.2~0.0~0.0~0.0~0.0~0~0.0~0.0~0.0~0.0~0~0.0~0.0~0.0~0.0~0~0.0~0.0~0.0~225.0~50.2~0.0*
%ADD10D10*%
%ADD11C,0.013800*%
%ADD12C,0.014200*%
%ADD13R,0.057100X0.051200*%
%ADD14R,0.051200X0.057100*%
G04~CAMADD=15~10~0.0~50.2~0.0~0.0~0.0~0.0~0~0.0~0.0~0.0~0.0~0~0.0~0.0~0.0~0.0~0~0.0~0.0~0.0~315.0~50.2~0.0*
%ADD15D15*%
%ADD16R,0.025200X0.025200*%
%ADD17R,0.021700X0.023600*%
%ADD18C,0.005000*%
%ADD19C,0.024000*%
%ADD20C,0.018000*%
%LNdemo_board-1*%
%LPD*%
G54D10*
X04801Y02665D03*
X04794Y02672D03*
X04002Y02687D03*
X04009Y0268D03*
G54D11*
X03897Y02657D03*
X03937Y02696D03*
X03503Y02933D03*
X03543D03*
X03582D03*
X03622D03*
X03661D03*
X037D03*
X0374D03*
X03779D03*
X03818D03*
X03858D03*
X03897D03*
X03937D03*
X03976D03*
X04015D03*
X04055D03*
X04094D03*
X03503Y02893D03*
X03543D03*
X03582D03*
X03622D03*
X03661D03*
X037D03*
X0374D03*
X03779D03*
X03818D03*
X03858D03*
X03897D03*
X03937D03*
X03976D03*
X04015D03*
X04055D03*
X04094D03*
X03503Y02854D03*
X03543D03*
X03582D03*
X03622D03*
X03661D03*
X037D03*
X0374D03*
X03779D03*
X03818D03*
X03858D03*
X03897D03*
X03937D03*
X03976D03*
X04015D03*
X04055D03*
X04094D03*
X03503Y02815D03*
X03543D03*
X03582D03*
X03622D03*
X03661D03*
X037D03*
X0374D03*
X03779D03*
X03818D03*
X03858D03*
X03897D03*
X03937D03*
X03976D03*
X04015D03*
X04055D03*
X04094D03*
X03503Y02775D03*
X03543D03*
X03582D03*
X03622D03*
X03661D03*
X037D03*
X0374D03*
X03779D03*
X03818D03*
X03858D03*
X03897D03*
X03937D03*
X03976D03*
X04015D03*
X04055D03*
X04094D03*
X03503Y02736D03*
X03543D03*
X03582D03*
X03622D03*
X03661D03*
X037D03*
X0374D03*
X03779D03*
X03818D03*
X03858D03*
X03897D03*
X03937D03*
X03976D03*
X04015D03*
X04055D03*
X04094D03*
X03503Y02696D03*
X03543D03*
X03582D03*
X03622D03*
X03661D03*
X037D03*
X0374D03*
X03779D03*
X03818D03*
X03858D03*
X03897D03*
X03976D03*
X04015D03*
X04055D03*
X04094D03*
X03503Y02657D03*
X03543D03*
X03582D03*
X03622D03*
X03661D03*
X037D03*
X0374D03*
X03779D03*
X03818D03*
X03858D03*
X03937D03*
X03976D03*
X04015D03*
X04055D03*
X04094D03*
X03503Y02618D03*
X03543D03*
X03582D03*
X03622D03*
X03661D03*
X037D03*
X0374D03*
X03779D03*
X03818D03*
X03858D03*
X03897D03*
X03937D03*
X03976D03*
X04015D03*
X04055D03*
X04094D03*
X03503Y02578D03*
X03543D03*
X03582D03*
X03622D03*
X03661D03*
X037D03*
X0374D03*
X03779D03*
X03818D03*
X03858D03*
X03897D03*
X03937D03*
X03976D03*
X04015D03*
X04055D03*
X04094D03*
X03503Y02539D03*
X03543D03*
X03582D03*
X03622D03*
X03661D03*
X037D03*
X0374D03*
X03779D03*
X03818D03*
X03858D03*
X03897D03*
X03937D03*
X03976D03*
X04015D03*
X04055D03*
X04094D03*
X03503Y025D03*
X03543D03*
X03582D03*
X03622D03*
X03661D03*
X037D03*
X0374D03*
X03779D03*
X03818D03*
X03858D03*
X03897D03*
X03937D03*
X03976D03*
X04015D03*
X04055D03*
X04094D03*
X03503Y0246D03*
X03543D03*
X03582D03*
X03622D03*
X03661D03*
X037D03*
X0374D03*
X03779D03*
X03818D03*
X03858D03*
X03897D03*
X03937D03*
X03976D03*
X04055D03*
X03503Y02421D03*
X03543D03*
X03582D03*
X03622D03*
X03661D03*
X037D03*
X0374D03*
X03779D03*
X03818D03*
X03858D03*
X03897D03*
X03937D03*
X03976D03*
X04015D03*
X04055D03*
X04094D03*
X03503Y02381D03*
X03543D03*
X03582D03*
X03622D03*
X03661D03*
X037D03*
X0374D03*
X03779D03*
X03818D03*
X03858D03*
X03897D03*
X03937D03*
X03976D03*
X04015D03*
X04055D03*
X04094D03*
X03503Y02342D03*
X03543D03*
X03582D03*
X03622D03*
X03661D03*
X037D03*
X0374D03*
X03779D03*
X03818D03*
X03858D03*
X03897D03*
X03937D03*
X03976D03*
X04015D03*
X04055D03*
X04094D03*
Y0246D03*
X04015D03*
G54D12*
X04531Y02618D03*
Y02649D03*
Y02807D03*
X04563D03*
X04689D03*
X0472D03*
X04752D03*
X045Y02775D03*
X04531D03*
X04563D03*
X04689D03*
X0472D03*
X04531Y02744D03*
X04563D03*
X04689D03*
X0472D03*
X04752D03*
X045Y02712D03*
X04531D03*
X04563D03*
X04689D03*
X0472D03*
X04531Y02681D03*
X04563D03*
X04689D03*
X0472D03*
X04752D03*
X045Y02649D03*
X04563D03*
X04689D03*
X0472D03*
X045Y02618D03*
X04563D03*
X04689D03*
X0472D03*
X04752D03*
X045Y02586D03*
X04531D03*
X04563D03*
X04689D03*
X0472D03*
X04752D03*
X045Y02555D03*
X04531D03*
X04563D03*
X04689D03*
X0472D03*
X04752D03*
X045Y02523D03*
X04531D03*
X04563D03*
X04689D03*
X0472D03*
X04752D03*
X045Y02492D03*
X04531D03*
X04563D03*
X04689D03*
X0472D03*
X04752D03*
G54D13*
X04224Y02901D03*
Y02838D03*
X03405Y02606D03*
Y02669D03*
X04862Y02815D03*
Y02752D03*
X04852Y02477D03*
Y0254D03*
G54D14*
X03795Y03031D03*
X03858D03*
X03472Y0224D03*
X03535D03*
X03637Y03031D03*
X037D03*
X03763Y0224D03*
X03826D03*
X03618D03*
X03681D03*
X03909D03*
X03972D03*
X04055D03*
X04118D03*
X04204D03*
X04267D03*
G54D15*
X04544Y0263D03*
X04537Y02623D03*
X04542Y02661D03*
X04535Y02653D03*
G54D16*
X04868Y02602D03*
X04832D03*
G54D17*
X04831Y02645D03*
X04869D03*
Y02689D03*
X04831D03*
G54D18*
X03997Y02794D02*
X04017D01*
X03999Y02697D02*
Y027D01*
X04006Y02707*
Y02724*
X04001Y02729D02*
X04006Y02724D01*
X04001Y02729D02*
Y02742D01*
X04009Y0275*
X04011*
X0403Y02769*
Y02781*
X04017Y02794D02*
X0403Y02781D01*
X03994Y02714D02*
X03996Y02712D01*
X03989Y02714D02*
X03994D01*
X04019Y027D02*
Y02714D01*
X04015Y02696D02*
X04019Y027D01*
Y02714D02*
X0403Y02725D01*
X03976Y02736D02*
Y02742D01*
X03993Y02759*
X04032Y02753D02*
X04037D01*
X04015Y02736D02*
X04032Y02753D01*
X0404Y0279D02*
X04074D01*
X04015Y02815D02*
X0404Y0279D01*
X0398Y02696D02*
X03996Y02712D01*
X03999Y0269D02*
Y02695D01*
Y0269D02*
X04002Y02687D01*
X04009Y0268D02*
X04012Y02682D01*
X04646Y02713D02*
X04648Y02715D01*
X04607Y02713D02*
X04646D01*
X04603Y02709D02*
X04607Y02713D01*
X04627Y02753D02*
X04629Y02751D01*
Y02745D02*
Y02751D01*
X04621Y02736D02*
X04629Y02745D01*
X04611Y02753D02*
X04627D01*
X04621Y02728D02*
Y02736D01*
X04581Y02765D02*
X04638D01*
X04577Y02769D02*
X04581Y02765D01*
X04577Y02769D02*
Y02777D01*
X04638Y02765D02*
X04649Y02754D01*
X04676Y02668D02*
X04689Y02681D01*
X04669Y02668D02*
X04676D01*
X04635Y02702D02*
X04669Y02668D01*
X0466Y02765D02*
X04663Y02768D01*
X04672D02*
X04676Y02764D01*
X04663Y02768D02*
X04672D01*
X04655Y02765D02*
X0466D01*
X04643Y02777D02*
X04655Y02765D01*
X04643Y02777D02*
Y02783D01*
X04653Y02806D02*
X04655Y02804D01*
Y028D02*
Y02804D01*
X04652Y02798D02*
X04655Y028D01*
X04632Y02806D02*
X04653D01*
X04643Y02783D02*
X04652Y02792D01*
Y02798*
X04577Y02796D02*
Y02808D01*
Y02796D02*
X04581Y02792D01*
X04577Y02808D02*
X0458Y02811D01*
X04585*
X04581Y02792D02*
X0463D01*
X04628Y0281D02*
X04632Y02806D01*
X04609Y0281D02*
X04628D01*
X04637Y02817D02*
X04645D01*
X04632Y02823D02*
X04637Y02817D01*
X04601D02*
X04609Y0281D01*
X04592Y02817D02*
X04601D01*
X04585Y02811D02*
X04592Y02817D01*
X0463Y02792D02*
X04632Y0279D01*
X04607Y02729D02*
Y02749D01*
X04577Y02727D02*
X04582Y02731D01*
X04559Y02727D02*
X04577D01*
X04582Y02731D02*
X04591D01*
X04469Y02737D02*
X04489D01*
X04498Y02727*
X04505*
X0451Y02722*
X0452*
X04527Y02729*
X04537*
X04446Y02714D02*
X04469Y02737D01*
X04485Y02704D02*
X04487Y02701D01*
X04477Y02704D02*
X04485D01*
X04475Y02701D02*
X04477Y02704D01*
X04475Y02666D02*
Y02701D01*
X04472Y02663D02*
X04475Y02666D01*
X04467Y02663D02*
X04472D01*
X04463Y02667D02*
X04467Y02663D01*
X04463Y02667D02*
Y027D01*
X0446Y02703D02*
X04463Y027D01*
X04455Y02703D02*
X0446D01*
X04452Y027D02*
X04455Y02703D01*
X04503Y02685D02*
D01*
X04514Y02672D02*
X04519D01*
X04507Y02665D02*
X04514Y02672D01*
X0449Y02665D02*
X04507D01*
X04487Y02668D02*
Y02701D01*
X04503Y02685D02*
X04531Y02712D01*
X04487Y02668D02*
X0449Y02665D01*
X04591Y02731D02*
X04598Y02724D01*
X0455Y02736D02*
X04559Y02727D01*
X04544Y02736D02*
X0455D01*
X04537Y02729D02*
X04544Y02736D01*
X04763Y02641D02*
X04787D01*
X04799Y02629*
X04801Y02658D02*
X04804Y02656D01*
X04771Y02651D02*
X04797Y02676D01*
X04767Y02651D02*
X04771D01*
X04787Y0268D02*
Y02823D01*
X0477Y02664D02*
X04787Y0268D01*
X04703Y02664D02*
X0477D01*
X04757Y02681D02*
X04777Y027D01*
X04752Y02681D02*
X04757D01*
X04801Y02658D02*
Y02665D01*
X04797Y02676D02*
Y02827D01*
X04777Y027D02*
Y02819D01*
X04766Y02705D02*
Y02712D01*
X04759Y02698D02*
X04766Y02705D01*
X04835Y02645D02*
Y02689D01*
X04831Y02606D02*
X04835Y02603D01*
X04832Y02602D02*
X04832Y02603D01*
X04835*
X04831Y02606D02*
Y02645D01*
X04788Y02602D02*
X04832D01*
X04758Y02632D02*
X04788Y02602D01*
X04762Y02642D02*
X04763Y02641D01*
X04766Y02652D02*
X04767Y02651D01*
X04741Y02642D02*
X04762D01*
X04737Y02652D02*
X04766D01*
X04794Y02672D02*
X04801Y02665D01*
X04002Y02687D02*
X04009Y0268D01*
X04563Y02586D02*
Y02598D01*
X04655Y02566D02*
Y02594D01*
X04638Y02648D02*
X04645Y02641D01*
Y02626D02*
X04661Y0261D01*
X04655Y02594D02*
X04661Y026D01*
Y0261*
X04645Y02626D02*
Y02641D01*
X04646Y02656D02*
X04674Y02628D01*
Y02612D02*
Y02628D01*
X04669Y02563D02*
Y02587D01*
X04651Y02545D02*
X04669Y02563D01*
Y02587D02*
X04681Y02599D01*
X04674Y02612D02*
X04681Y02605D01*
Y02599D02*
Y02605D01*
X04684Y02569D02*
X04694D01*
X04679Y02574D02*
X04684Y02569D01*
X04679Y02574D02*
Y0258D01*
X04685Y02586*
X04689*
X04638Y02653D02*
X04641Y02656D01*
X04646*
X04625Y02692D02*
X04674Y02643D01*
X0459Y02692D02*
X04625D01*
X04674Y02643D02*
Y02643D01*
Y02643D02*
X04682Y02635D01*
X04734D02*
X04741Y02642D01*
X04682Y02635D02*
X04734D01*
X04587Y02696D02*
X0459Y02692D01*
X04548Y02696D02*
X04587D01*
X04547Y02696D02*
X04548Y02696D01*
X04734Y02649D02*
X04737Y02652D01*
X0472Y02649D02*
X04734D01*
X04745Y02632D02*
X04758D01*
X04738Y02625D02*
X04745Y02632D01*
X04727Y02625D02*
X04738D01*
X0472Y02618D02*
X04727Y02625D01*
X04605Y02702D02*
X04635D01*
X04603Y02705D02*
X04605Y02702D01*
X04593Y02681D02*
X04619Y02655D01*
X04563Y02681D02*
X04593D01*
X04752Y02586D02*
X04767Y0257D01*
X04804Y02491D02*
Y02523D01*
X04767Y0257D02*
D01*
Y02559D02*
Y0257D01*
Y02559D02*
X04782Y02544D01*
X04782*
X04804Y02523*
X04794Y02496D02*
Y02518D01*
X04752Y02524D02*
X04774D01*
X04784Y025D02*
Y02514D01*
X04774Y02538D02*
X04778Y02534D01*
X04778*
X04794Y02518*
X04774Y02524D02*
X04784Y02514D01*
X0474Y02538D02*
X04774D01*
X04039Y02673D02*
X04055Y02657D01*
X04563Y02744D02*
X04586D01*
X04096Y02535D02*
X04097Y02536D01*
X04537Y02623D02*
X04544Y0263D01*
X04535Y02653D02*
X04542Y02661D01*
X04873Y02645D02*
X04901D01*
X04872Y02645D02*
X04873Y02645D01*
X04872Y02602D02*
Y02645D01*
X04873Y02689D02*
X04901D01*
X04001Y02624D02*
X04009Y02632D01*
X03996Y02624D02*
X04001D01*
X03993Y02627D02*
X03996Y02624D01*
X04009Y02632D02*
X04021D01*
X03993Y02627D02*
Y02631D01*
X03997Y02635*
X04102Y02631D02*
X0413D01*
X041Y02632D02*
X04102Y02631D01*
X04159Y02663D02*
X04184D01*
X04155Y02659D02*
X04159Y02663D01*
X04155Y02654D02*
Y02659D01*
Y02654D02*
X04158Y0265D01*
X04158*
X0416Y0262D02*
Y02648D01*
X04158Y0265D02*
X0416Y02648D01*
X03884Y02546D02*
X03891Y02553D01*
X03883Y02546D02*
X03884D01*
X03872Y02536D02*
X03883Y02546D01*
X03872Y02533D02*
Y02536D01*
X03866Y02526D02*
X03872Y02533D01*
X03897Y02578D02*
X03913D01*
X03919Y02572*
Y02553D02*
Y02572D01*
X03917Y02551D02*
X03919Y02553D01*
X03906Y02551D02*
X03917D01*
X03897Y02618D02*
X03917Y02598D01*
X03903Y02553D02*
X03906Y02551D01*
X03891Y02553D02*
X03903D01*
X03885Y02507D02*
X039Y02523D01*
X03874Y02507D02*
X03885D01*
X03866Y02515D02*
X03874Y02507D01*
X039Y02523D02*
X0396D01*
X03962Y02525*
X03932Y02475D02*
X03951Y02494D01*
X03931Y02475D02*
X03932D01*
X03922Y02466D02*
X03931Y02475D01*
X03922Y02415D02*
Y02466D01*
X03866Y02515D02*
Y02526D01*
X03956Y02559D02*
X03976Y02539D01*
X03962Y02525D02*
X03982D01*
X03998Y0254*
Y02545*
X03991Y02515D02*
X04015Y02539D01*
X03971Y02515D02*
X03991D01*
X03951Y02495D02*
X03971Y02515D01*
X03917Y02755D02*
D01*
X03937Y02775*
X04039Y02712D02*
X04055Y02696D01*
X03798Y02755D02*
X03818Y02775D01*
X03798Y02755D02*
X03798D01*
X0465Y02562D02*
X04655Y02566D01*
X04055Y02893D02*
X04075Y02873D01*
Y02873D02*
Y02873D01*
X04094Y02937D02*
X0411Y02952D01*
X04114Y02874D02*
D01*
X04072Y02836D02*
X04073D01*
X04055Y02854D02*
X04072Y02836D01*
X04658Y02839D02*
X04665D01*
X04652Y02833D02*
X04658Y02839D01*
X04652Y02824D02*
Y02833D01*
X04676Y02819D02*
X04681D01*
X0467Y02825D02*
X04676Y02819D01*
X0467Y02825D02*
Y02834D01*
X04665Y02839D02*
X0467Y02834D01*
X04688Y02837D02*
X04694Y02844D01*
X0471*
X04681Y02819D02*
X04688Y02827D01*
Y02837*
X04645Y02817D02*
X04652Y02824D01*
X04632Y02823D02*
Y02833D01*
X04622Y02844D02*
X04632Y02833D01*
X04568Y02844D02*
X04622D01*
X04749Y0278D02*
X04766Y02798D01*
X04749Y02768D02*
Y0278D01*
X04766Y02735D02*
Y02751D01*
X04756Y0276D02*
X04766Y02751D01*
X04756Y0276D02*
D01*
X04749Y02768D02*
X04756Y0276D01*
X04749Y0278D02*
D01*
X04766Y02798D02*
Y02816D01*
X04703Y02684D02*
Y02695D01*
X04705Y02698*
X04703Y02684D02*
X04706Y02681D01*
X04705Y02698D02*
X04733D01*
X04734Y02698D02*
X04759D01*
X0472Y02681D02*
D01*
X04706D02*
X0472D01*
X04733Y02698D02*
X04734Y02698D01*
X04077Y02705D02*
X04083D01*
X04074Y02708D02*
X04077Y02705D01*
X04074Y02708D02*
Y02718D01*
X04049Y02721D02*
X04071D01*
X0403Y02725D02*
X04046D01*
X04049Y02721*
X04071D02*
X04074Y02718D01*
X04632Y02782D02*
Y0279D01*
X0463Y0278D02*
X04632Y02782D01*
X0458Y0278D02*
X0463D01*
X04577Y02777D02*
X0458Y0278D01*
X04563Y02598D02*
X04574Y02609D01*
X04563Y02586D02*
X04563D01*
X04638Y02648D02*
Y02653D01*
X0457Y02632D02*
X04597Y02606D01*
X04611Y02596D02*
X04619Y02588D01*
Y0256D02*
Y02588D01*
Y0256D02*
X04621Y02558D01*
X04628*
X0463Y02561*
Y02586*
X04633Y02589*
X04638*
X04642Y02585*
Y02565D02*
Y02585D01*
Y02565D02*
X04646Y02562D01*
X0465*
X04598Y02596D02*
X04611D01*
X04589Y02582D02*
X04592Y02585D01*
X04582Y02582D02*
X04589D01*
X04578Y02586D02*
X04582Y02582D01*
X04592Y0259D02*
X04598Y02596D01*
X04592Y02585D02*
Y0259D01*
X04578Y02586D02*
Y02594D01*
X04582Y02598*
Y02606*
X0458Y02609D02*
X04582Y02606D01*
X04574Y02609D02*
X0458D01*
X04597Y02606D02*
X04626D01*
X04586Y02664D02*
X04618Y02632D01*
X04628*
X04083Y028D02*
X04121D01*
X04074Y0279D02*
X04083Y028D01*
X04556Y02874D02*
X04723D01*
X04121Y028D02*
X04138Y02783D01*
X04422*
X04426Y02779*
Y02773D02*
Y02779D01*
X04423Y0277D02*
X04426Y02773D01*
X04373Y0277D02*
X04423D01*
X04368Y02765D02*
X04373Y0277D01*
X04368Y0276D02*
Y02765D01*
Y0276D02*
X04374Y02754D01*
X04428*
X04437Y02764*
Y02824*
X04458Y02845*
X04472*
X04496Y02869*
X04551*
X04556Y02874*
X04281Y02758D02*
X04353D01*
X04357Y02762*
X04134Y02772D02*
X04353D01*
X04357Y02768*
Y02762D02*
Y02768D01*
X04276Y0275D02*
Y02753D01*
X04281Y02758*
X04088Y0279D02*
X04117D01*
X04073Y02775D02*
X04088Y0279D01*
X04055Y02775D02*
X04073D01*
X0456Y02864D02*
X04718D01*
X04276Y0275D02*
X04282Y02744D01*
X04432*
X04447Y02759*
Y0282*
X04462Y02835*
X04476*
X045Y02859*
X04555*
X0456Y02864*
X0413Y02762D02*
X04261D01*
X0413Y02749D02*
X04261D01*
Y02762D02*
X04265Y02758D01*
Y02753D02*
Y02758D01*
X04261Y02749D02*
X04265Y02753D01*
X04143Y02734D02*
X04438D01*
X04133Y02724D02*
X04143Y02734D01*
X0412Y02724D02*
X04133D01*
X0413Y02749D02*
Y02749D01*
X04771Y02853D02*
X04797Y02827D01*
X04723Y02874D02*
X04743Y02853D01*
X04771*
X04766Y02843D02*
X04787Y02823D01*
X04718Y02864D02*
X04739Y02843D01*
X04766*
X04564Y02854D02*
X04714D01*
X04762Y02833D02*
X04777Y02819D01*
X04714Y02854D02*
X04735Y02833D01*
X04762*
X04759Y02822D02*
X04766Y02816D01*
X04732Y02822D02*
X04759D01*
X0471Y02844D02*
X04732Y02822D01*
X04706Y02762D02*
X04719Y02775D01*
X04736Y02758D02*
X04737D01*
X04736Y02728D02*
D01*
X04752Y02719D02*
X04755Y02716D01*
X04752Y02719D02*
Y02727D01*
X04755Y02729*
X04527Y02849D02*
X04537Y02838D01*
X04549*
X04564Y02854*
X04504Y02849D02*
X04527D01*
X04489Y02833D02*
X04504Y02849D01*
X04489Y02826D02*
Y02833D01*
X04488Y02825D02*
X04489Y02826D01*
X04466Y02825D02*
X04488D01*
X04457Y02816D02*
X04466Y02825D01*
X04117Y02775D02*
X0413Y02762D01*
X04457Y02753D02*
Y02816D01*
X04438Y02734D02*
X04457Y02753D01*
X04115Y02729D02*
X0412Y02724D01*
X04115Y02729D02*
X04115D01*
X04115D02*
Y02733D01*
X04123Y02741*
Y02741*
X0413Y02749*
X04562Y02837D02*
X04568Y02844D01*
X04562Y02829D02*
Y02837D01*
X04553Y02819D02*
X04562Y02829D01*
X04542Y02819D02*
X04553D01*
X04522Y02839D02*
X04542Y02819D01*
X04508Y02839D02*
X04522D01*
X04499Y02829D02*
X04508Y02839D01*
X04499Y02821D02*
Y02829D01*
X04493Y02815D02*
X04499Y02821D01*
X04471Y02815D02*
X04493D01*
X04467Y02811D02*
X04471Y02815D01*
X04472Y02759D02*
X04497D01*
X04467Y02764D02*
X04472Y02759D01*
X04467Y02764D02*
Y02811D01*
X04762Y02716D02*
X04766Y02712D01*
X04755Y02716D02*
X04762D01*
X0476Y02729D02*
X04766Y02735D01*
X04755Y02729D02*
X0476D01*
X04499Y02749D02*
Y02757D01*
X04497Y02759D02*
X04499Y02757D01*
X04497Y02747D02*
X04499Y02749D01*
X04092Y02714D02*
X04131D01*
X04465Y02747D02*
X04497D01*
X04442Y02724D02*
X04465Y02747D01*
X04164Y02724D02*
X04442D01*
X04149Y02709D02*
X04164Y02724D01*
X04137Y02709D02*
X04149D01*
X04131Y02714D02*
X04137Y02709D01*
X04083Y02705D02*
X04092Y02714D01*
X04102Y02704D02*
X04127D01*
X04094Y02696D02*
X04102Y02704D01*
X04112Y02694D02*
X04123D01*
X04107Y02689D02*
X04112Y02694D01*
X04123D02*
X04128Y02689D01*
X04127Y02704D02*
X04132Y02699D01*
X04735Y02791D02*
X04736D01*
X04752Y02807*
X04737Y02758D02*
X04752Y02744D01*
X04719Y02775D02*
X0472D01*
X04676Y02752D02*
Y02764D01*
X04649Y02748D02*
Y02754D01*
X04636Y02735D02*
X04649Y02748D01*
X04636Y02728D02*
Y02735D01*
X04665Y0274D02*
X04676Y02752D01*
X04598Y02724D02*
X04602D01*
X04607Y02729*
Y02749D02*
X04611Y02753D01*
X04625Y02724D02*
X04632D01*
X04621Y02728D02*
X04625Y02724D01*
X04632D02*
X04636Y02728D01*
X04168Y02714D02*
X04446D01*
X04153Y02699D02*
X04168Y02714D01*
X04132Y02699D02*
X04153D01*
X04658Y0274D02*
X04665D01*
X04648Y02731D02*
X04658Y0274D01*
X04648Y02715D02*
Y02731D01*
X04603Y02705D02*
Y02709D01*
X0444Y02703D02*
X04441Y02701D01*
X04433Y02703D02*
X0444D01*
X04431Y02701D02*
X04433Y02703D01*
X04128Y02689D02*
X04165D01*
X04172*
Y02704*
X04182*
Y02689D02*
Y02704D01*
Y02689D02*
X04192D01*
Y02704*
X04202*
Y02689D02*
Y02704D01*
Y02689D02*
X04212D01*
Y02704*
X04222*
Y02689D02*
Y02704D01*
Y02689D02*
X04232D01*
Y02704*
X04242*
Y02689D02*
Y02704D01*
Y02689D02*
X04252D01*
Y02704*
X04262*
Y02689D02*
Y02704D01*
Y02689D02*
X04272D01*
Y02704*
X04282*
Y02689D02*
Y02704D01*
Y02689D02*
X04292D01*
Y02704*
X04302*
Y02689D02*
Y02704D01*
Y02689D02*
X04312D01*
Y02704*
X04322*
Y02689D02*
Y02704D01*
Y02689D02*
X04332D01*
Y02704*
X04342*
Y02689D02*
Y02704D01*
Y02689D02*
X04352D01*
Y02704*
X04362*
Y02689D02*
Y02704D01*
Y02689D02*
X04372D01*
Y02704*
X04382*
Y02689D02*
Y02704D01*
Y02689D02*
X04392D01*
Y02704*
X04402*
Y02689D02*
Y02704D01*
Y02689D02*
X04412D01*
X04417*
X0442Y0266D02*
Y02687D01*
X04417Y02689D02*
X0442Y02687D01*
X04431Y02661D02*
Y02701D01*
X0442Y0266D02*
X04422Y02658D01*
X04428*
X04431Y02661*
X04441Y02665D02*
Y02701D01*
Y02665D02*
X04444Y02663D01*
X04449*
X04452Y02666*
Y027*
X04476Y0272D02*
X04482D01*
X0449Y02712*
X045*
X04519Y02672D02*
X04523Y02668D01*
Y02661D02*
Y02668D01*
X0451Y02649D02*
X04523Y02661D01*
X045Y02649D02*
X0451D01*
X04109Y02672D02*
X04112Y02675D01*
X04107Y02685D02*
Y02689D01*
Y02685D02*
X04112Y0268D01*
Y02675D02*
Y0268D01*
X04098Y02672D02*
X04109D01*
X04077Y02693D02*
X04098Y02672D01*
X04082Y02665D02*
Y0267D01*
X04076Y0266D02*
X04082Y02665D01*
X04072Y0266D02*
X04076D01*
X04068Y0269D02*
X04072Y02693D01*
X04068Y02684D02*
Y0269D01*
Y02684D02*
X04082Y0267D01*
X04072Y02693D02*
X04077D01*
X04061Y02671D02*
X04072Y0266D01*
X04059Y02671D02*
X04061D01*
X04046Y02685D02*
X04059Y02671D01*
X04046Y02685D02*
D01*
X04039Y02692D02*
X04046Y02685D01*
X04031Y02692D02*
X04039D01*
X04021Y02682D02*
X04031Y02692D01*
X04012Y02682D02*
X04021D01*
X04009Y02674D02*
Y0268D01*
Y02674D02*
X04015Y02668D01*
Y02657D02*
Y02668D01*
X04521Y02597D02*
X04525Y02601D01*
X04509Y02597D02*
X04521D01*
X04503Y02603D02*
X04509Y02597D01*
X0448Y02637D02*
X04485Y02632D01*
X04459Y02637D02*
X0448D01*
X04456Y02634D02*
X04459Y02637D01*
X04511Y02627D02*
X04519D01*
X04506Y02632D02*
X04511Y02627D01*
X04519D02*
X04531Y02638D01*
X04155Y0262D02*
X0416D01*
X04134Y02641D02*
X04155Y0262D01*
X04153Y02608D02*
X04169D01*
X04485Y02632D02*
X04506D01*
X04531Y02638D02*
Y02649D01*
X04441Y02634D02*
X04456D01*
X04486Y02603D02*
X04503D01*
X04484Y02601D02*
X04486Y02603D01*
X04525Y02601D02*
Y02612D01*
X04469Y02601D02*
X04484D01*
X04454Y02624D02*
X04459Y02619D01*
Y02611D02*
Y02619D01*
Y02611D02*
X04469Y02601D01*
X04398Y02608D02*
X04432D01*
X04443Y02618*
X04447Y02624D02*
X04454D01*
X04443Y0262D02*
X04447Y02624D01*
X04443Y02618D02*
Y0262D01*
X04396Y02609D02*
X04398Y02608D01*
X04396Y02609D02*
Y02654D01*
X04387D02*
X04396D01*
X04387Y02609D02*
Y02654D01*
X04385Y02608D02*
X04387Y02609D01*
X04356Y02608D02*
X04385D01*
X04353Y02611D02*
X04356Y02608D01*
X04353Y02611D02*
Y02654D01*
X04343D02*
X04353D01*
X04343Y02609D02*
Y02654D01*
X04342Y02608D02*
X04343Y02609D01*
X04311Y02608D02*
X04342D01*
X0431Y02609D02*
X04311Y02608D01*
X0431Y02609D02*
Y02654D01*
X043D02*
X0431D01*
X043Y02609D02*
Y02654D01*
X04299Y02608D02*
X043Y02609D01*
X04268Y02608D02*
X04299D01*
X04266Y02609D02*
X04268Y02608D01*
X04266Y02609D02*
Y02654D01*
X04257D02*
X04266D01*
X04257Y02609D02*
Y02653D01*
X04255Y02608D02*
X04257Y02609D01*
X04224Y02608D02*
X04255D01*
X04223Y02609D02*
X04224Y02608D01*
X04223Y02609D02*
Y02653D01*
X04213D02*
X04223D01*
X04213Y02608D02*
Y02653D01*
X04212Y02608D02*
X04213Y02608D01*
X04406Y02618D02*
X04428D01*
X04433Y02622*
Y02626*
X04441Y02634*
X044Y02664D02*
X04406Y02658D01*
X04382Y02664D02*
X044D01*
X04376Y02658D02*
X04382Y02664D01*
X04339Y02664D02*
X04357D01*
X04363Y02658*
X04314Y02664D02*
X0432Y02658D01*
X04296Y02664D02*
X04314D01*
X04333Y02658D02*
X04339Y02664D01*
X0427Y02664D02*
X04276Y02658D01*
X0429D02*
X04296Y02664D01*
X04252Y02664D02*
X0427D01*
X04246Y02657D02*
X04252Y02664D01*
X04209Y02663D02*
X04227D01*
X04233Y02657*
X04406Y02618D02*
Y02658D01*
X04363Y02618D02*
Y02658D01*
X04377Y02618D02*
Y02658D01*
X04363Y02618D02*
X04377D01*
X0432D02*
Y02658D01*
X0429Y02618D02*
Y02657D01*
X04333Y02618D02*
Y02658D01*
X04233Y02618D02*
Y02657D01*
X04276Y02618D02*
Y02658D01*
Y02618D02*
X0429D01*
X0432D02*
X04333D01*
X04233D02*
X04247D01*
Y02657*
X03985Y02682D02*
X04001Y02667D01*
Y02651D02*
Y02667D01*
X03951Y02696D02*
X03965Y02682D01*
X03985*
X04184Y02663D02*
X0419Y02657D01*
X04203Y02657D02*
X04209Y02663D01*
X04045Y02642D02*
X04065D01*
X04084D02*
X04104D01*
X03943Y02711D02*
X03951Y02702D01*
X03931Y02711D02*
X03943D01*
X03951Y02696D02*
Y02702D01*
X03922D02*
X03931Y02711D01*
X03922Y02697D02*
Y02702D01*
X03908Y02684D02*
X03922Y02697D01*
X03908Y02668D02*
Y02684D01*
X03897Y02657D02*
X03908Y02668D01*
X0419Y02618D02*
Y02657D01*
X04203Y02618D02*
Y02657D01*
X04104Y02642D02*
X04106Y02641D01*
X04079Y02637D02*
X04084Y02642D01*
X0419Y02618D02*
X04203D01*
X04106Y02641D02*
X04134D01*
X04065Y02642D02*
X04069Y02638D01*
X0404Y02637D02*
X04045Y02642D01*
X04025D02*
X0403Y02637D01*
X04001Y02651D02*
X0401Y02642D01*
X04025*
X04071Y02638D02*
X04071Y02637D01*
X04079*
X04069Y02638D02*
X04071D01*
X0403Y02637D02*
X0404D01*
X0418Y02609D02*
Y02653D01*
X04181Y02608D02*
X04212D01*
X0417Y02653D02*
X0418D01*
X03997Y02635D02*
Y02641D01*
X03982Y02671D02*
X0399Y02663D01*
Y02648D02*
X03997Y02641D01*
X04088Y02632D02*
X041D01*
X04061D02*
X04065Y02628D01*
X04049Y02632D02*
X04061D01*
X03969Y02671D02*
X03982D01*
X03954Y02674D02*
Y02679D01*
X03949Y0267D02*
X03954Y02674D01*
X03937Y02696D02*
X03954Y02679D01*
X0396Y02662D02*
X03969Y02671D01*
X03952Y02662D02*
X0396D01*
X0399Y02648D02*
Y02663D01*
X03949Y02665D02*
Y0267D01*
Y02665D02*
X03952Y02662D01*
X0417Y02608D02*
Y02653D01*
X0413Y02631D02*
X04153Y02608D01*
X04083Y02627D02*
X04088Y02632D01*
X04169Y02608D02*
X0417Y02608D01*
X0418Y02609D02*
X04181Y02608D01*
X04067Y02627D02*
X04083D01*
X04044D02*
X04049Y02632D01*
X04021D02*
X04026Y02627D01*
X04067Y02628D02*
X04067Y02627D01*
X04065Y02628D02*
X04067D01*
X04026Y02627D02*
X04044D01*
X03925Y02669D02*
Y02677D01*
Y02669D02*
X03937Y02657D01*
X04481Y02583D02*
X04496D01*
X04472Y02591D02*
X04481Y02583D01*
X04467Y02591D02*
X04472D01*
X04458Y02583D02*
X04467Y02591D01*
X04454Y02583D02*
X04458D01*
X04448D02*
X04454D01*
X04448Y02553D02*
Y02583D01*
X04438Y02553D02*
X04448D01*
X04438D02*
Y02583D01*
X04428D02*
X04438D01*
X04428Y02554D02*
Y02583D01*
X04418Y02554D02*
X04428D01*
X04418D02*
Y02583D01*
X04408D02*
X04418D01*
X04408Y02554D02*
Y02583D01*
X04398Y02554D02*
X04408D01*
X04398D02*
Y02583D01*
X04388D02*
X04398D01*
X04388Y02554D02*
Y02583D01*
X04378Y02554D02*
X04388D01*
X04378D02*
Y02583D01*
X04368D02*
X04378D01*
X04368Y02554D02*
Y02583D01*
X04358Y02554D02*
X04368D01*
X04358D02*
Y02583D01*
X04348D02*
X04358D01*
X04348Y02554D02*
Y02583D01*
X04338Y02554D02*
X04348D01*
X04338D02*
Y02583D01*
X04328D02*
X04338D01*
X04328Y02554D02*
Y02583D01*
X04318Y02554D02*
X04328D01*
X04318D02*
Y02583D01*
X04308D02*
X04318D01*
X04308Y02554D02*
Y02583D01*
X04298Y02554D02*
X04308D01*
X04298D02*
Y02583D01*
X04288D02*
X04298D01*
X04288Y02554D02*
Y02583D01*
X04278Y02554D02*
X04288D01*
X04278D02*
Y02583D01*
X04268D02*
X04278D01*
X04268Y02554D02*
Y02583D01*
X04258Y02554D02*
X04268D01*
X04258D02*
Y02583D01*
X04248D02*
X04258D01*
X04248Y02554D02*
Y02583D01*
X04238Y02554D02*
X04248D01*
X04238D02*
Y02583D01*
X04228D02*
X04238D01*
X04228Y02554D02*
Y02583D01*
X04218Y02554D02*
X04228D01*
X04218D02*
Y02583D01*
X04208D02*
X04218D01*
X04208Y02554D02*
Y02583D01*
X04198Y02554D02*
X04208D01*
X04198D02*
Y02583D01*
X04188D02*
X04198D01*
X04188Y02554D02*
Y02583D01*
X04178Y02554D02*
X04188D01*
X04178D02*
Y02583D01*
X04168D02*
X04178D01*
X04168Y02563D02*
Y02583D01*
X04158Y02563D02*
X04168D01*
X04158D02*
Y02583D01*
X04148D02*
X04158D01*
X04143D02*
X04148D01*
X04464Y02566D02*
X0447Y02572D01*
X04464Y02566D02*
D01*
X04462Y02564D02*
X04464Y02566D01*
X04462Y02538D02*
Y02564D01*
X04453Y02529D02*
X04462Y02538D01*
X04479Y02555D02*
X045D01*
X04116Y0261D02*
X04143Y02583D01*
X0411Y0261D02*
X04116D01*
X04104Y02603D02*
X0411Y0261D01*
X04094Y02607D02*
Y02618D01*
Y02607D02*
X04098Y02603D01*
X04104*
X04152Y02547D02*
X04155Y02544D01*
X04079Y02583D02*
X04088Y02593D01*
X04152Y02547D02*
Y02555D01*
X04119Y02588D02*
X04152Y02555D01*
X04104Y02588D02*
X04119D01*
X041Y02593D02*
X04104Y02588D01*
X04088Y02593D02*
X041D01*
X04496Y02583D02*
X045Y02586D01*
X04132Y02486D02*
Y02547D01*
Y02486D02*
X04137Y0248D01*
X04115Y02564D02*
X04132Y02547D01*
X04616Y02527D02*
X04621Y02532D01*
Y0254*
X04626Y02545*
X04651*
X04608Y02527D02*
X04616D01*
X04639Y02533D02*
X04648D01*
X04632Y02526D02*
X04639Y02533D01*
X04632Y02518D02*
Y02526D01*
X04155Y02544D02*
X04374D01*
X04155Y02544D02*
X04155Y02544D01*
X04434D02*
X0444Y02538D01*
Y02534D02*
Y02538D01*
Y02534D02*
X04445Y02529D01*
X04453*
X04376Y02544D02*
X04434D01*
X04375Y02543D02*
X04376Y02544D01*
X04375Y02543D02*
D01*
X04374Y02544D02*
X04375Y02543D01*
X04601Y02534D02*
X04608Y02527D01*
X04632Y02518D02*
X04669Y02482D01*
X04585Y02536D02*
X04653Y02468D01*
X04601Y02534D02*
Y02542D01*
X04606Y02547*
Y02563*
X04648Y02533D02*
X04659Y02522D01*
X04688D02*
X04689Y02523D01*
X04659Y02522D02*
X04688D01*
X04527Y0254D02*
X04579D01*
X04514Y02527D02*
X04527Y0254D01*
X04509Y02538D02*
X04526Y02555D01*
X04488Y02538D02*
X04509D01*
X04579Y0254D02*
X04584Y02536D01*
X04585*
X04689Y02586D02*
D01*
X04694Y02569D02*
X04704Y0256D01*
Y02547D02*
Y0256D01*
X04664Y02468D02*
X04669Y02473D01*
X04653Y02468D02*
X04664D01*
X04669Y02473D02*
Y02482D01*
X04691Y02477D02*
X04701D01*
X04666Y02451D02*
X04691Y02477D01*
X04666Y02441D02*
Y02451D01*
Y02441D02*
X04671Y02437D01*
X04597Y02572D02*
X04606Y02563D01*
X0447Y02572D02*
X04597D01*
X04563Y02555D02*
X04588D01*
X04589Y02554*
X04056Y02599D02*
X04071Y02583D01*
X04046Y02599D02*
X04056D01*
X04043Y02596D02*
X04046Y02599D01*
X04043Y02588D02*
Y02596D01*
X04039Y02584D02*
X04043Y02588D01*
X0403Y02584D02*
X04039D01*
X04024Y0259D02*
X0403Y02584D01*
X04071Y02583D02*
X04079D01*
X04015Y02578D02*
X04027Y02566D01*
X04035*
X04024Y0259D02*
Y0259D01*
X04012Y02602D02*
X04024Y0259D01*
X04012Y02602D02*
Y02614D01*
X04015Y02618*
X04433Y02519D02*
X0447D01*
X04146D02*
X04155D01*
X0443D02*
X04433D01*
X0443D02*
Y02534D01*
X0442D02*
X0443D01*
X0442Y02519D02*
Y02534D01*
Y02505D02*
Y02519D01*
X0441Y02505D02*
X0442D01*
X0441D02*
Y02519D01*
Y02534*
X044D02*
X0441D01*
X044Y02519D02*
Y02534D01*
Y02505D02*
Y02519D01*
X0439Y02505D02*
X044D01*
X0439D02*
Y02519D01*
Y02534*
X0438D02*
X0439D01*
X0438Y02519D02*
Y02534D01*
Y02505D02*
Y02519D01*
X0437Y02505D02*
X0438D01*
X0437D02*
Y02519D01*
Y02534*
X0436D02*
X0437D01*
X0436Y02519D02*
Y02534D01*
Y02505D02*
Y02519D01*
X0435Y02505D02*
X0436D01*
X0435D02*
Y02519D01*
Y02534*
X0434D02*
X0435D01*
X0434Y02519D02*
Y02534D01*
Y02505D02*
Y02519D01*
X0433Y02505D02*
X0434D01*
X0433D02*
Y02519D01*
Y02534*
X0432D02*
X0433D01*
X0432Y02519D02*
Y02534D01*
Y02505D02*
Y02519D01*
X0431Y02505D02*
X0432D01*
X0431D02*
Y02519D01*
Y02534*
X043D02*
X0431D01*
X043Y02519D02*
Y02534D01*
Y02505D02*
Y02519D01*
X0429Y02505D02*
X043D01*
X0429D02*
Y02519D01*
Y02534*
X0428D02*
X0429D01*
X0428Y02519D02*
Y02534D01*
Y02505D02*
Y02519D01*
X0427Y02505D02*
X0428D01*
X0427D02*
Y02519D01*
Y02534*
X0426D02*
X0427D01*
X0426Y02519D02*
Y02534D01*
Y02505D02*
Y02519D01*
X0425Y02505D02*
X0426D01*
X0425D02*
Y02519D01*
Y02534*
X0424D02*
X0425D01*
X0424Y02519D02*
Y02534D01*
Y02505D02*
Y02519D01*
X0423Y02505D02*
X0424D01*
X0423D02*
Y02519D01*
Y02534*
X0422D02*
X0423D01*
X0422Y02519D02*
Y02534D01*
Y02505D02*
Y02519D01*
X0421Y02505D02*
X0422D01*
X0421D02*
Y02519D01*
Y02534*
X042D02*
X0421D01*
X042Y02519D02*
Y02534D01*
Y02505D02*
Y02519D01*
X0419Y02505D02*
X042D01*
X0419D02*
Y02519D01*
Y02534*
X0418D02*
X0419D01*
X0418Y02519D02*
Y02534D01*
Y02505D02*
Y02519D01*
X0417Y02505D02*
X0418D01*
X0417D02*
Y02519D01*
Y02534*
X0416D02*
X0417D01*
X0416Y02519D02*
Y02534D01*
X04155Y02519D02*
X0416D01*
X04142Y02524D02*
X04146Y02519D01*
X04142Y02524D02*
Y02551D01*
X04118Y02489D02*
Y02535D01*
X04096Y02535D02*
X04108Y02522D01*
Y02494D02*
Y02522D01*
X0447Y02519D02*
X04488Y02538D01*
X04425Y0248D02*
X04445D01*
X04138D02*
X04157D01*
X04422D02*
X04425D01*
X04422Y02466D02*
Y0248D01*
X04412Y02466D02*
X04422D01*
X04412D02*
Y0248D01*
Y02494*
X04402D02*
X04412D01*
X04402Y0248D02*
Y02494D01*
Y02466D02*
Y0248D01*
X04392Y02466D02*
X04402D01*
X04392D02*
Y0248D01*
Y02494*
X04382D02*
X04392D01*
X04382Y0248D02*
Y02494D01*
Y02466D02*
Y0248D01*
X04372Y02466D02*
X04382D01*
X04372D02*
Y0248D01*
Y02494*
X04362D02*
X04372D01*
X04362Y0248D02*
Y02494D01*
Y02466D02*
Y0248D01*
X04352Y02466D02*
X04362D01*
X04352D02*
Y0248D01*
Y02494*
X04342D02*
X04352D01*
X04342Y0248D02*
Y02494D01*
Y02466D02*
Y0248D01*
X04332Y02466D02*
X04342D01*
X04332D02*
Y0248D01*
Y02494*
X04322D02*
X04332D01*
X04322Y0248D02*
Y02494D01*
Y02466D02*
Y0248D01*
X04312Y02466D02*
X04322D01*
X04312D02*
Y0248D01*
Y02494*
X04302D02*
X04312D01*
X04302Y0248D02*
Y02494D01*
Y02466D02*
Y0248D01*
X04292Y02466D02*
X04302D01*
X04292D02*
Y0248D01*
Y02494*
X04282D02*
X04292D01*
X04282Y0248D02*
Y02494D01*
Y02466D02*
Y0248D01*
X04272Y02466D02*
X04282D01*
X04272D02*
Y0248D01*
Y02494*
X04262D02*
X04272D01*
X04262Y0248D02*
Y02494D01*
Y02466D02*
Y0248D01*
X04252Y02466D02*
X04262D01*
X04252D02*
Y0248D01*
Y02494*
X04242D02*
X04252D01*
X04242Y0248D02*
Y02494D01*
Y02466D02*
Y0248D01*
X04232Y02466D02*
X04242D01*
X04232D02*
Y0248D01*
Y02494*
X04222D02*
X04232D01*
X04222Y0248D02*
Y02494D01*
Y02466D02*
Y0248D01*
X04212Y02466D02*
X04222D01*
X04212D02*
Y0248D01*
Y02494*
X04202D02*
X04212D01*
X04202Y0248D02*
Y02494D01*
Y02466D02*
Y0248D01*
X04192Y02466D02*
X04202D01*
X04192D02*
Y0248D01*
Y02494*
X04182D02*
X04192D01*
X04182Y0248D02*
Y02494D01*
Y02466D02*
Y0248D01*
X04172Y02466D02*
X04182D01*
X04172D02*
Y0248D01*
Y02494*
X04162D02*
X04172D01*
X04162Y0248D02*
Y02494D01*
X04157Y0248D02*
X04162D01*
X04069Y02564D02*
X04115D01*
X04055Y02578D02*
X04069Y02564D01*
X04114Y02578D02*
X04142Y02551D01*
X04094Y02578D02*
X04114D01*
X04057Y02557D02*
X04071Y02543D01*
X04052Y02557D02*
X04057D01*
X04039Y02544D02*
X04052Y02557D01*
X04577Y02492D02*
Y02501D01*
X04563Y02515D02*
X04577Y02501D01*
X04563Y02515D02*
Y02523D01*
X04531D02*
X04547Y02507D01*
X04669Y02539D02*
X04673D01*
X04547Y02507D02*
D01*
X04586Y02482D02*
X04597Y02471D01*
X04586Y02482D02*
Y02483D01*
X04577Y02492D02*
X04586Y02483D01*
X04577Y02477D02*
X04593Y02461D01*
X04557Y02477D02*
X04577D01*
X04548Y02486D02*
X04557Y02477D01*
X04548Y02486D02*
Y02487D01*
X04544Y02491D02*
X04548Y02487D01*
X0454Y02491D02*
X04544D01*
X04539Y02492D02*
X0454Y02491D01*
X04531Y02492D02*
X04539D01*
X0461Y02461D02*
X04629Y02442D01*
X04593Y02461D02*
X0461D01*
X04526Y02555D02*
X04531D01*
X04126Y0246D02*
X04132Y02467D01*
X04117Y0246D02*
X04126D01*
X04132Y02467D02*
X04141D01*
X04108Y02469D02*
X04117Y0246D01*
X04108Y02469D02*
Y02478D01*
X04118Y02489*
X04153Y02455D02*
X04436D01*
X04141Y02467D02*
X04153Y02455D01*
X041Y02553D02*
X04118Y02535D01*
X03998Y02545D02*
X0401Y02558D01*
X04017D02*
X04031Y02544D01*
X0401Y02558D02*
X04017D01*
X04031Y02544D02*
X04039D01*
X04078Y02543D02*
X04088Y02553D01*
X04071Y02543D02*
X04078D01*
X04088Y02553D02*
X041D01*
X04639Y02429D02*
Y02446D01*
X04597Y02386D02*
X04639Y02429D01*
X04614Y02471D02*
X04639Y02446D01*
X04593Y02396D02*
X04629Y02433D01*
Y02442*
X04597Y02471D02*
X04614D01*
X04578Y02396D02*
X04593D01*
X0449D02*
X04496D01*
X04571D02*
X04578D01*
X04571D02*
Y02409D01*
X04561D02*
X04571D01*
X04561Y02396D02*
Y02409D01*
X04551Y02396D02*
X04561D01*
X04551D02*
Y02409D01*
X04541D02*
X04551D01*
X04541Y02396D02*
Y02409D01*
X04531Y02396D02*
X04541D01*
X04531D02*
Y02409D01*
X04521D02*
X04531D01*
X04521Y02396D02*
Y02409D01*
X04511Y02396D02*
X04521D01*
X04511D02*
Y02409D01*
X04501D02*
X04511D01*
X04501Y02396D02*
Y02409D01*
X04496Y02396D02*
X04501D01*
X04486Y02386D02*
X04597D01*
X04431Y02418D02*
X0444D01*
X04401Y02392D02*
Y02418D01*
X04391Y02392D02*
Y02418D01*
X04401*
X04362Y02392D02*
Y02418D01*
X0448Y02392D02*
Y02418D01*
X0447Y02392D02*
Y02418D01*
X0448*
X0444Y02392D02*
Y02418D01*
X0448Y02392D02*
X04486Y02386D01*
X0444Y02392D02*
X04446Y02386D01*
X04431Y02392D02*
Y02418D01*
X04464Y02386D02*
X0447Y02392D01*
X04386Y02386D02*
X04391Y02392D01*
X04425Y02386D02*
X04431Y02392D01*
X04407Y02386D02*
X04425D01*
X04401Y02392D02*
X04407Y02386D01*
X04446D02*
X04464D01*
X04362Y02392D02*
X04368Y02386D01*
X04386*
X04244Y02392D02*
Y02418D01*
X04234Y02392D02*
Y02418D01*
X04273Y02392D02*
Y02418D01*
X04195D02*
X04204D01*
X04122D02*
X04165D01*
X04234D02*
X04244D01*
X04352D02*
X04362D01*
X04313D02*
X04322D01*
X04313Y02392D02*
Y02418D01*
X04273D02*
X04283D01*
Y02392D02*
Y02418D01*
X04025Y0246D02*
X0405Y02435D01*
X04018Y02457D02*
D01*
X04085Y02432D02*
X04088Y02435D01*
X04015Y0246D02*
X04025D01*
X04088Y02435D02*
X04105D01*
X04064Y02432D02*
X04085D01*
X04105Y02435D02*
X04122Y02418D01*
X0405Y02435D02*
X04061D01*
X04064Y02432*
X04352Y02392D02*
Y02418D01*
X04322Y02392D02*
Y02418D01*
X04346Y02386D02*
X04352Y02392D01*
X04267Y02386D02*
X04273Y02392D01*
X04322D02*
X04328Y02386D01*
X04307D02*
X04313Y02392D01*
X04289Y02386D02*
X04307D01*
X04328D02*
X04346D01*
X0425D02*
X04267D01*
X04283Y02392D02*
X04289Y02386D01*
X04244Y02392D02*
X0425Y02386D01*
X04204Y02392D02*
Y02418D01*
Y02392D02*
X0421Y02386D01*
X04165Y02392D02*
Y02418D01*
X04195Y02392D02*
Y02418D01*
X0421Y02386D02*
X04228D01*
X04189D02*
X04195Y02392D01*
X04228Y02386D02*
X04234Y02392D01*
X04165D02*
X04171Y02386D01*
X04189*
X04427Y02428D02*
X04445D01*
X04421Y02422D02*
X04427Y02428D01*
X04405D02*
X04411Y02422D01*
X04387Y02428D02*
X04405D01*
X04381Y02422D02*
X04387Y02428D01*
X04484D02*
X0449Y02422D01*
X04466Y02428D02*
X04484D01*
X04445D02*
X0445Y02422D01*
X0449Y02396D02*
Y02422D01*
X0446D02*
X04466Y02428D01*
X0446Y02396D02*
Y02422D01*
X04411Y02396D02*
Y02422D01*
X0445Y02396D02*
Y02422D01*
X04421Y02396D02*
Y02422D01*
X0445Y02396D02*
X0446D01*
X04381D02*
Y02422D01*
X04411Y02396D02*
X04421D01*
X04309Y02428D02*
X04327D01*
X04303Y02422D02*
X04309Y02428D01*
X04287D02*
X04293Y02422D01*
X04269Y02428D02*
X04287D01*
X04263Y02422D02*
X04269Y02428D01*
X04348D02*
X04366D01*
X04372Y02422*
X04327Y02428D02*
X04332Y02422D01*
X04342D02*
X04348Y02428D01*
X04169D02*
X04175Y02422D01*
X04126Y02428D02*
X04169D01*
X04185Y02422D02*
X0419Y02428D01*
X04094Y0246D02*
X04126Y02428D01*
X0423D02*
X04248D01*
X04254Y02422*
X0419Y02428D02*
X04208D01*
X04214Y02422*
X04342Y02396D02*
Y02422D01*
X04332Y02396D02*
Y02422D01*
X04372Y02396D02*
Y02422D01*
X04293Y02396D02*
Y02422D01*
X04303Y02396D02*
Y02422D01*
X04332Y02396D02*
X04342D01*
X04372D02*
X04381D01*
X04254D02*
X04263D01*
X04293D02*
X04303D01*
X04254D02*
Y02422D01*
X04224D02*
X0423Y02428D01*
X04224Y02396D02*
Y02422D01*
X04175Y02396D02*
Y02422D01*
X04214Y02396D02*
Y02422D01*
Y02396D02*
X04224D01*
X04263D02*
Y02422D01*
X04175Y02396D02*
X04185D01*
Y02422*
X04161Y02358D02*
X04607D01*
X04113Y02406D02*
X04161Y02358D01*
X04049Y02406D02*
X04113D01*
X04138Y02352D02*
Y02363D01*
X04132Y02369D02*
X04138Y02363D01*
X04126Y02369D02*
X04132D01*
X04119Y02362D02*
X04126Y02369D01*
X0411Y02362D02*
X04119D01*
X04106Y02366D02*
X0411Y02362D01*
X04106Y02366D02*
Y02373D01*
X04112Y02379*
Y02384*
X041Y02396D02*
X04112Y02384D01*
X04088Y02396D02*
X041D01*
X04138Y02352D02*
X04143Y02347D01*
X04607Y02358D02*
X04671Y02422D01*
Y02437*
X04701Y02477D02*
X04706Y02472D01*
X04685Y02442D02*
X04706Y02464D01*
Y02472*
X04685Y02436D02*
Y02442D01*
X04722Y02473D02*
X04735Y02486D01*
X04685Y02436D02*
X0469Y0243D01*
X047*
X04722Y02453*
Y02473*
X04735Y02486D02*
Y02529D01*
X04741Y02474D02*
X04758D01*
X04732Y02466D02*
X04741Y02474D01*
X04732Y02449D02*
Y02466D01*
X04706Y02423D02*
X04732Y02449D01*
X04758Y02474D02*
X04784Y025D01*
X04689Y02492D02*
X04704Y02507D01*
X04723Y02555D02*
X0474Y02538D01*
X0463Y02347D02*
X04637Y02354D01*
X04696Y02412D02*
X04706Y02423D01*
X04689Y02419D02*
X04696Y02412D01*
X04678Y02409D02*
X04689Y02419D01*
X04678Y02409D02*
X04685Y02402D01*
X04674Y02391D02*
X04685Y02402D01*
X04667Y02398D02*
X04674Y02391D01*
X04657Y02387D02*
X04667Y02398D01*
X04657Y02387D02*
X04664Y0238D01*
X04653Y0237D02*
X04664Y0238D01*
X04646Y02377D02*
X04653Y0237D01*
X04636Y02366D02*
X04646Y02377D01*
X04636Y02366D02*
X04643Y02359D01*
X04637Y02354D02*
X04643Y02359D01*
X04079Y025D02*
X04094D01*
X04064Y02485D02*
X04079Y025D01*
X04Y02485D02*
X04064D01*
X04143Y02347D02*
X0463D01*
X0464Y02327D02*
X04804Y02491D01*
X04001Y02336D02*
X0401Y02327D01*
X04635Y02337D02*
X04794Y02496D01*
X04091Y02366D02*
X0412Y02337D01*
X0401Y02327D02*
X0464D01*
X0412Y02337D02*
X04635D01*
X04083Y02366D02*
X04091D01*
X04078Y02385D02*
X04088Y02396D01*
X04061D02*
X04071Y02385D01*
X04042Y02396D02*
X04061D01*
X04031Y02406D02*
X04042Y02396D01*
X04071Y02385D02*
X04078D01*
X0404Y02415D02*
X04049Y02406D01*
X03997Y02397D02*
X04006Y02406D01*
X03995Y02397D02*
X03997D01*
X03986Y02406D02*
X03995Y02397D01*
X03986Y02406D02*
Y02411D01*
X0399Y02415*
Y02416*
X04001Y02426*
Y02427*
X03981Y02445D02*
X0399Y02454D01*
X03981Y02436D02*
Y02445D01*
Y02436D02*
X03985Y02432D01*
X04001Y0244D02*
X04005Y02436D01*
Y02431D02*
Y02436D01*
X04001Y02427D02*
X04005Y02431D01*
X03998Y0244D02*
X04001D01*
X0399Y02432D02*
X03998Y0244D01*
X03985Y02432D02*
X0399D01*
X04006Y02406D02*
X04031D01*
X0399Y02454D02*
Y02475D01*
X04Y02485*
X03982Y02396D02*
X0399Y02387D01*
X03971Y02396D02*
X03981D01*
X03982Y02396*
X03951Y02416D02*
X03971Y02396D01*
X03943D02*
X03962Y02377D01*
Y02375D02*
X03981Y02356D01*
X03962Y02375D02*
Y02377D01*
X03951Y02416D02*
Y02427D01*
X0403Y02371D02*
Y02387D01*
X04009Y02396D02*
X04021D01*
X0403Y02387*
X04023Y02365D02*
X0403Y02371D01*
X04001Y02387D02*
X04009Y02396D01*
X0399Y02387D02*
X04001D01*
X04023Y02355D02*
Y02365D01*
X04043Y0235D02*
X04059Y02367D01*
X04064*
X04067Y0237*
X04023Y02355D02*
X04027Y0235D01*
X04043*
X04067Y0237D02*
X0408D01*
X04083Y02366*
X04001Y02336D02*
Y02337D01*
X03982Y02356D02*
X04001Y02337D01*
X03981Y02356D02*
X03982D01*
X03941Y02396D02*
X03943D01*
X03922Y02415D02*
X03941Y02396D01*
X03951Y02494D02*
Y02495D01*
X04476Y02618D02*
D01*
X04531Y02586D02*
X04547Y02602D01*
X04577Y02649D02*
X04592Y02634D01*
X04436Y02455D02*
X04489Y02509D01*
X04445Y0248D02*
X04488Y02524D01*
X04563Y02649D02*
X04577D01*
X0467Y02503D02*
X04678D01*
X04689Y02492*
X04515Y02822D02*
D01*
Y02759D02*
X04531Y02744D01*
X03602Y02401D02*
D01*
X03622Y02381*
X03582Y02421D02*
X03602Y0244D01*
X03641Y02598D02*
D01*
X03622Y02578D02*
X03641Y02598D01*
X03838Y02834D02*
X03858Y02815D01*
D01*
X0374D02*
X03759Y02834D01*
X0374Y02815D02*
D01*
Y02893D02*
X03759Y02874D01*
X0374Y02893D02*
D01*
X04055Y02539D02*
X04074Y02519D01*
X04055Y02539D02*
D01*
X03988Y02566D02*
X03996D01*
X03976Y02578D02*
X03988Y02566D01*
X03976Y02578D02*
D01*
X03818Y02657D02*
X03838Y02677D01*
Y02716D02*
D01*
X03818Y02696D02*
X03838Y02716D01*
X03878D02*
X03897Y02736D01*
X03858Y02696D02*
X03878Y02716D01*
X03858Y02696D02*
D01*
X03779Y02578D02*
X03799Y02559D01*
X03779Y02578D02*
D01*
X03818Y02657D02*
D01*
X04752Y02492D02*
X04767Y02507D01*
X04673Y02539D02*
X04689Y02555D01*
X04737Y02603D02*
X04752Y02618D01*
X04737Y02602D02*
Y02603D01*
X04074Y02353D02*
X04085Y02342D01*
X04094*
X04035Y02833D02*
X04054Y02815D01*
X04055*
X04117Y0279D02*
X04134Y02772D01*
X03913Y02712D02*
Y0272D01*
X03897Y02696D02*
X03913Y02712D01*
X03897Y02736D02*
D01*
X03661Y02775D02*
X03681Y02755D01*
D01*
X03838Y02559D02*
D01*
X03858Y02578*
X03818Y02539D02*
X03838Y02519D01*
X03818Y02539D02*
D01*
X0374Y02696D02*
X03759Y02716D01*
X0374Y02696D02*
D01*
X03563Y02834D02*
D01*
X03543Y02815D02*
X03563Y02834D01*
X03543Y02696D02*
X03563Y02716D01*
X03543Y02696D02*
D01*
X03602Y02716D02*
D01*
X03622Y02696*
X03543Y02618D02*
X03563Y02598D01*
X03543Y02618D02*
D01*
X03563Y02559D02*
D01*
X03543Y02539D02*
X03563Y02559D01*
X03622Y02578D02*
D01*
X03543Y02539D02*
D01*
X03488Y02326D02*
X03503Y02342D01*
X03563Y0244D02*
D01*
X03543Y0246D02*
X03563Y0244D01*
X03858Y02381D02*
X03878Y02401D01*
X037Y02381D02*
X0372Y02401D01*
X037Y02381D02*
D01*
X03878Y0244D02*
D01*
X03858Y0246D02*
X03878Y0244D01*
X03759Y02401D02*
D01*
X03779Y02381*
X03759Y0244D02*
D01*
X0374Y0246D02*
X03759Y0244D01*
X037Y02539D02*
X0372Y02559D01*
X037Y02539D02*
D01*
X03779Y02696D02*
D01*
X03759Y02677D02*
X03779Y02696D01*
X03759Y02677D02*
D01*
X0374Y02657D02*
X03759Y02677D01*
X03661Y02618D02*
X03681Y02637D01*
X03661Y02618D02*
D01*
X03681Y02677D02*
X037Y02657D01*
X03759Y02755D02*
X03779Y02736D01*
X03858Y02618D02*
X03878Y02598D01*
X03799Y02519D02*
D01*
X03779Y025D02*
X03799Y02519D01*
X03838Y02598D02*
D01*
X03818Y02578D02*
X03838Y02598D01*
X03779Y02618D02*
D01*
X03759Y02598D02*
X03779Y02618D01*
X03759Y02598D02*
D01*
X0374Y02578D02*
X03759Y02598D01*
X03858Y02657D02*
D01*
X03838Y02637D02*
X03858Y02657D01*
X03818Y02618D02*
X03838Y02637D01*
X03818Y02618D02*
D01*
Y02657D02*
D01*
X03779Y02618D02*
D01*
X03818Y02696D02*
D01*
X03779Y02657D02*
D01*
X03759Y02637D02*
X03779Y02657D01*
X03759Y02637D02*
D01*
X0374Y02618D02*
X03759Y02637D01*
X03818Y02618D02*
D01*
X03488Y02948D02*
Y02952D01*
Y02948D02*
X03503Y02933D01*
X03602Y02834D02*
D01*
X03622Y02815*
X03602Y02874D02*
D01*
X03622Y02893*
X03838Y02874D02*
D01*
X03818Y02893D02*
X03838Y02874D01*
X03956Y02913D02*
X03976Y02893D01*
D01*
X04531Y02681D02*
X04547Y02696D01*
X04563Y02712D02*
D01*
X04055Y02696D02*
D01*
X04089Y02475D02*
X04108Y02494D01*
X04488Y02524D02*
X04499D01*
X04137Y0248D02*
X04138Y0248D01*
X04489Y02509D02*
X04506D01*
X04097Y02536D02*
D01*
X04094Y02539D02*
X04097Y02536D01*
X04499Y02524D02*
X045Y02523D01*
X03948Y0243D02*
Y02451D01*
Y0243D02*
X03951Y02427D01*
X03964Y0244D02*
D01*
X0396Y02444D02*
X03964Y0244D01*
X03951Y02456D02*
X0397Y02475D01*
X03951Y02454D02*
Y02456D01*
X03948Y02451D02*
X03951Y02454D01*
X03964Y0244D02*
D01*
X0397Y02475D02*
X03971D01*
X0396Y02444D02*
X03976Y0246D01*
X04484Y0248D02*
X04496Y02492D01*
X045*
X04055Y0246D02*
X04063D01*
X04726Y02538D02*
X04735Y02529D01*
X04713Y02538D02*
X04726D01*
X04704Y02547D02*
X04713Y02538D01*
X0472Y02555D02*
X04723D01*
X04752Y02523D02*
X04752Y02524D01*
X04689Y02555D02*
X04692Y02558D01*
X04001Y02454D02*
Y02466D01*
X04009Y02475*
X03971D02*
X0399Y02494D01*
Y02495*
X04009Y02514*
X04021*
X04036Y025*
X04055*
X04074Y02755D02*
D01*
X03917Y02913D02*
D01*
X03897Y02893D02*
X03917Y02913D01*
X04094Y02933D02*
Y02937D01*
X0398Y02815D02*
X03996Y0283D01*
X03976Y02815D02*
X0398D01*
X04484Y02791D02*
X045Y02775D01*
X04739Y02568D02*
Y02569D01*
Y02568D02*
X04752Y02555D01*
X04476Y02618D02*
X045D01*
X04752Y02492D02*
D01*
X04689Y02618D02*
D01*
X04704Y02602D01*
X0472Y02586*
Y02523D02*
D01*
X04704Y02507D02*
X0472Y02523D01*
X04689Y02492D02*
D01*
X04563Y02618D02*
D01*
X04547Y02602D02*
X04563Y02618D01*
X04531Y02586D02*
D01*
Y02523D02*
D01*
X04704Y02728D02*
X0472Y02744D01*
X04704Y02728D02*
D01*
X04685Y02712D02*
X04689D01*
X04669Y02696D02*
X04685Y02712D01*
X03976Y02653D02*
Y02657D01*
X04531Y02775D02*
Y02777D01*
X04547Y02791D02*
X04563Y02775D01*
X04547Y02791D02*
D01*
X04673D02*
X04689Y02775D01*
X04669Y02791D02*
X04673D01*
X0472Y02712D02*
X04736Y02728D01*
X0472Y02712D02*
D01*
X04015Y02736D02*
D01*
X04685Y02744D02*
X04689D01*
X04665Y02724D02*
X04685Y02744D01*
X04055Y02736D02*
X04074Y02755D01*
X04114D02*
D01*
X04094Y02736D02*
X04114Y02755D01*
X04704Y02822D02*
X0472Y02807D01*
X04704Y02822D02*
Y02826D01*
X04114Y02834D02*
D01*
X04094Y02815D02*
X04114Y02834D01*
X04531Y02744D02*
D01*
X04094Y02854D02*
X04114Y02874D01*
X04515Y02822D02*
X04531Y02807D01*
X04001Y02454D02*
X0402Y02435D01*
X04021*
X0404Y02416*
Y02415D02*
Y02416D01*
X03976Y02381D02*
D01*
X03988Y0237D01*
X03996*
X04009Y02475D02*
X04089D01*
X04063Y0246D02*
X04074Y02448D01*
X04506Y02509D02*
X04514Y02517D01*
Y02527*
X04547Y02507D02*
X04563Y02492D01*
X03976Y02618D02*
X03996Y02598D01*
X04484Y02791D02*
Y02795D01*
X04514Y02794D02*
X04531Y02777D01*
X04055Y02618D02*
X04063D01*
X04074Y02606*
X04055Y02657D02*
D01*
X03937Y02618D02*
D01*
X03917Y02637D02*
X03937Y02618D01*
X03917Y02637D02*
D01*
X03976Y02696D02*
X0398D01*
X03956Y02633D02*
X03976Y02653D01*
X03956Y02633D02*
D01*
X04039Y02673D02*
X04039Y02673D01*
X04039Y02669D02*
Y02673D01*
Y02712D02*
X04039Y02712D01*
X04039Y02708D02*
Y02712D01*
X04094Y02775D02*
X04117D01*
X04563Y02712D02*
X04586D01*
X0472Y02649D02*
D01*
X04689D02*
X04703Y02664D01*
X04094Y02657D02*
X04118D01*
X04586Y02744D02*
D01*
Y02748D01*
X04542Y02661D02*
X04546Y02664D01*
X04586*
X04535Y02653D02*
D01*
X04531Y02649D02*
X04535Y02653D01*
X04525Y02612D02*
X04531Y02618D01*
X04532D02*
X04537Y02623D01*
X04531Y02618D02*
X04532D01*
X04544Y0263D02*
X04546Y02632D01*
X0457*
G54D19*
X04809Y02552D02*
X04843D01*
Y02528D02*
X04853Y02538D01*
X04255Y02252D02*
X04267Y0224D01*
X04255Y02252D02*
Y02283D01*
X04204Y0224D02*
X04216Y02252D01*
Y02283*
X04204Y0224D02*
X04216Y02228D01*
Y02196D02*
Y02228D01*
X04255D02*
X04267Y0224D01*
X04255Y02196D02*
Y02228D01*
X0396Y02252D02*
X03972Y0224D01*
X0396Y02252D02*
Y02283D01*
X03909Y0224D02*
X03921Y02252D01*
Y02283*
X03909Y0224D02*
X03921Y02228D01*
Y02196D02*
Y02228D01*
X0396D02*
X03972Y0224D01*
X0396Y02196D02*
Y02228D01*
X04106Y02252D02*
X04118Y0224D01*
X04106Y02252D02*
Y02283D01*
X04055Y0224D02*
X04066Y02252D01*
Y02283*
X04055Y0224D02*
X04066Y02228D01*
Y02196D02*
Y02228D01*
X04106D02*
X04118Y0224D01*
X04106Y02196D02*
Y02228D01*
X03669Y02252D02*
X03681Y0224D01*
X03669Y02252D02*
Y02283D01*
X03618Y0224D02*
X03629Y02252D01*
Y02283*
X03618Y0224D02*
X03629Y02228D01*
Y02196D02*
Y02228D01*
X03669D02*
X03681Y0224D01*
X03669Y02196D02*
Y02228D01*
X03815Y02252D02*
X03826Y0224D01*
X03815Y02252D02*
Y02283D01*
X03763Y0224D02*
X03775Y02252D01*
Y02283*
X03763Y0224D02*
X03775Y02228D01*
Y02196D02*
Y02228D01*
X03815D02*
X03826Y0224D01*
X03815Y02196D02*
Y02228D01*
X04864Y02489D02*
X04895D01*
X04852Y02477D02*
X04864Y02489D01*
Y02528D02*
X04895D01*
X04852Y0254D02*
X04864Y02528D01*
X04809Y02465D02*
X04839D01*
X03362Y02618D02*
X03393D01*
X03405Y02606*
X03362Y02657D02*
X03393D01*
X03405Y02669*
X03417Y02618D02*
X03448D01*
X03405Y02606D02*
X03417Y02618D01*
Y02657D02*
X03448D01*
X03405Y02669D02*
X03417Y02657D01*
X03689Y02988D02*
Y03019D01*
X037Y03031*
X03649Y02988D02*
Y03019D01*
X03637Y03031D02*
X03649Y03019D01*
Y03043D02*
Y03074D01*
X03637Y03031D02*
X03649Y03043D01*
X03689D02*
Y03074D01*
Y03043D02*
X037Y03031D01*
X03846Y03043D02*
Y03074D01*
Y03043D02*
X03858Y03031D01*
X03807Y03043D02*
Y03074D01*
X03795Y03031D02*
X03807Y03043D01*
Y02988D02*
Y03019D01*
X03795Y03031D02*
X03807Y03019D01*
X03846Y02988D02*
Y03019D01*
X03858Y03031*
X03523Y02196D02*
Y02228D01*
X03535Y0224*
X03484Y02196D02*
Y02228D01*
X03472Y0224D02*
X03484Y02228D01*
Y02252D02*
Y02283D01*
X03472Y0224D02*
X03484Y02252D01*
X03523D02*
Y02283D01*
Y02252D02*
X03535Y0224D01*
X04236Y0285D02*
X04267D01*
X04224Y02838D02*
X04236Y0285D01*
Y02889D02*
X04267D01*
X04224Y02901D02*
X04236Y02889D01*
X04181Y0285D02*
X04212D01*
X04224Y02838*
X04181Y02889D02*
X04212D01*
X04224Y02901*
X0485Y02759D02*
X0486Y02749D01*
X04874Y02763D02*
X04905D01*
X04862Y02752D02*
X04874Y02763D01*
Y02803D02*
X04905D01*
X04862Y02815D02*
X04874Y02803D01*
X04818Y02763D02*
X0485D01*
X04818Y02803D02*
X04851D01*
X0486Y02812*
G54D20*
X03997Y02794D03*
X03989Y02714D03*
X03993Y02759D03*
X04037Y02753D03*
X04503Y02685D03*
X04804Y02656D03*
X04799Y02629D03*
X04809Y02552D03*
X04255Y02283D03*
X04216D03*
Y02196D03*
X04255D03*
X0396Y02283D03*
X03921D03*
Y02196D03*
X0396D03*
X04106Y02283D03*
X04066D03*
Y02196D03*
X04106D03*
X03669Y02283D03*
X03629D03*
Y02196D03*
X03669D03*
X03815Y02283D03*
X03775D03*
Y02196D03*
X03815D03*
X04901Y02645D03*
Y02689D03*
X04895Y02489D03*
X04809Y02465D03*
X04895Y02528D03*
X03877Y02563D03*
X03917Y02598D03*
X03956Y02559D03*
X03917Y02755D03*
X03362Y02618D03*
Y02657D03*
X03448Y02618D03*
Y02657D03*
X03689Y02988D03*
X03649D03*
Y03074D03*
X03689D03*
X03846D03*
X03807D03*
Y02988D03*
X03846D03*
X03523Y02196D03*
X03484D03*
Y02283D03*
X03523D03*
X04267Y0285D03*
Y02889D03*
X04181Y0285D03*
Y02889D03*
X04905Y02763D03*
Y02803D03*
X04818D03*
Y02763D03*
X03798Y02755D03*
X04515Y02478D03*
X04075Y02873D03*
X0411Y02952D03*
X04114Y02874D03*
X04073Y02836D03*
X04626Y02606D03*
X04628Y02632D03*
X04706Y02762D03*
X04736Y02758D03*
Y02728D03*
X04735Y02791D03*
X04423Y02639D03*
X04479Y02555D03*
X04589Y02554D03*
X04547Y02507D03*
X04669Y02539D03*
X04704Y02507D03*
X0467Y02504D03*
X04476Y02618D03*
X04547Y02602D03*
X04592Y02634D03*
X04619Y02655D03*
X04616Y02826D03*
X04578Y02827D03*
X04515Y02822D03*
Y02759D03*
X03602Y02401D03*
Y0244D03*
X03641Y02598D03*
X03838Y02834D03*
X03759Y02874D03*
Y02834D03*
X04074Y02519D03*
X03996Y02566D03*
X04035D03*
X03838Y02677D03*
Y02716D03*
X03878D03*
X03799Y02559D03*
X04767Y02507D03*
X04737Y02602D03*
X04074Y02353D03*
X04035Y02833D03*
X03913Y0272D03*
X03681Y02755D03*
X03838Y02559D03*
Y02519D03*
X03759Y02716D03*
X03563Y02834D03*
Y02716D03*
X03602D03*
X03563Y02559D03*
Y02598D03*
X03488Y02326D03*
X03563Y0244D03*
X03878Y02401D03*
X0372D03*
X03878Y0244D03*
X03759Y02401D03*
Y0244D03*
X0372Y02559D03*
X03759Y02677D03*
X03681Y02637D03*
Y02677D03*
X03759Y02755D03*
X03878Y02598D03*
X03799Y02519D03*
X03838Y02598D03*
X03759D03*
X03838Y02637D03*
X03759D03*
X03488Y02952D03*
X03602Y02834D03*
Y02874D03*
X03838D03*
X03956Y02913D03*
X03964Y0244D03*
X04484Y0248D03*
X04074Y02755D03*
X03917Y02913D03*
X03996Y0283D03*
X04739Y02569D03*
X04704Y02602D03*
Y02728D03*
X04669Y02696D03*
X04547Y02791D03*
X04669D03*
X04665Y02724D03*
X04114Y02755D03*
X04704Y02826D03*
X04114Y02834D03*
X03996Y0237D03*
X04074Y02448D03*
X03996Y02598D03*
X04484Y02795D03*
X04514Y02794D03*
X04476Y0272D03*
X04074Y02606D03*
X03917Y02637D03*
X03956Y02633D03*
X03925Y02677D03*
X04039Y02669D03*
Y02708D03*
X04586Y02712D03*
X04118Y02657D03*
X04586Y02748D03*
M02*